<svg width="24" height="24" viewBox="0 0 24 24" fill="currentColor" xmlns="http://www.w3.org/2000/svg">
<path d="M12 2C12.9285 2 13.3928 1.99995 13.7842 2.03418C18.1352 2.41484 21.5852 5.8648 21.9658 10.2158C22 10.6072 22 11.0715 22 12V17C22 18.8692 21.9996 19.8038 21.5977 20.5C21.3344 20.9559 20.9559 21.3344 20.5 21.5977C19.8038 21.9996 18.8692 22 17 22H12C11.0715 22 10.6072 22 10.2158 21.9658C5.8648 21.5852 2.41484 18.1352 2.03418 13.7842C1.99995 13.3928 2 12.9285 2 12C2 11.0715 1.99995 10.6072 2.03418 10.2158C2.41484 5.8648 5.8648 2.41484 10.2158 2.03418C10.6072 1.99995 11.0715 2 12 2ZM12 14C11.4477 14 11 14.4477 11 15C11 15.5523 11.4477 16 12 16H15C15.5523 16 16 15.5523 16 15C16 14.4477 15.5523 14 15 14H12ZM9 10C8.44772 10 8 10.4477 8 11C8 11.5523 8.44772 12 9 12H15C15.5523 12 16 11.5523 16 11C16 10.4477 15.5523 10 15 10H9Z" fill="currentColor"/>
</svg>
