<svg width="24" height="24" viewBox="0 0 24 24" fill="currentColor" xmlns="http://www.w3.org/2000/svg">
<path d="M12 2C17.5228 2 22 6.47715 22 12C22 17.5228 17.5228 22 12 22C6.47715 22 2 17.5228 2 12C2 6.47715 6.47715 2 12 2ZM9.66699 7.14551C9.35059 6.97994 8.9777 7.19497 8.96289 7.55176C8.89939 9.08119 8.82834 12.5058 9.40234 13.5C9.97671 14.4942 12.9778 16.1448 14.334 16.8545C14.6502 17.0197 15.0221 16.8048 15.0371 16.4482C15.1006 14.9188 15.1717 11.4942 14.5977 10.5C14.0236 9.50589 11.0234 7.85531 9.66699 7.14551Z" fill="currentColor"/>
</svg>
