<svg width="24" height="24" viewBox="0 0 24 24" fill="currentColor" xmlns="http://www.w3.org/2000/svg">
<path d="M14.3213 15.2023C14.4394 15.2024 14.5349 15.2981 14.5352 15.4162V21.4874H10.4639V15.4162C10.4641 15.2983 10.5599 15.2027 10.6777 15.2023H14.3213ZM12.5 2.00014C13.8476 2.00014 14.9787 2.97 17.2412 4.90932L18.4561 5.95033C19.7076 7.02311 20.3337 7.55977 20.667 8.28432C21.0001 9.00883 21 9.83321 21 11.4816V16.631C21 18.9203 21.0001 20.0652 20.2891 20.7765C19.6196 21.446 18.5657 21.4841 16.5352 21.4865V15.4162C16.5349 14.1935 15.5439 13.2024 14.3213 13.2023H10.6777C9.45533 13.2027 8.46409 14.1937 8.46387 15.4162V21.4865C6.43395 21.4841 5.3803 21.4459 4.71094 20.7765C3.99989 20.0652 4 18.9203 4 16.631V11.4816C4 9.83321 3.99989 9.00883 4.33301 8.28432C4.66625 7.55977 5.29237 7.02311 6.54395 5.95033L7.75879 4.90932C10.0213 2.97 11.1524 2.00014 12.5 2.00014Z" fill="currentColor"/>
</svg>
