<svg width="24" height="24" viewBox="0 0 24 24" fill="currentColor" xmlns="http://www.w3.org/2000/svg">
<path d="M6.0498 2.22765C7.10008 1.32953 8.71106 1.58288 11.9316 2.08897L15.6211 2.66905C17.2337 2.92246 18.0406 3.04919 18.5205 3.61046C19.0001 4.17173 19 4.98811 19 6.62022V17.379C19 19.011 19 19.8275 18.5205 20.3888C18.0405 20.9501 17.2338 21.0777 15.6211 21.3312L11.9316 21.9103C8.71106 22.4164 7.10008 22.6697 6.0498 21.7716C4.99978 20.8735 5 19.2432 5 15.9835V13.0001H10.9189L8.21875 16.3751L9.78125 17.6251L13.7812 12.6251L14.2803 12.0001L13.7812 11.3751L9.78125 6.37511L8.21875 7.62511L10.9189 11.0001H5V8.01573C5 4.75607 4.99972 3.12575 6.0498 2.22765Z" fill="currentColor"/>
</svg>
