<svg width="24" height="24" viewBox="0 0 24 24" fill="currentColor" xmlns="http://www.w3.org/2000/svg">
<path d="M12.0003 3C14.8466 3.00016 17.2377 5.14074 17.552 7.96973L17.804 10.2354C17.8072 10.2641 17.8092 10.2788 17.8108 10.293C17.9398 11.4166 18.3047 12.5007 18.8831 13.4727C18.8904 13.485 18.8984 13.4975 18.9134 13.5225L19.4915 14.4854C20.016 15.3596 20.2786 15.7974 20.222 16.1562C20.1842 16.3949 20.0606 16.6115 19.8753 16.7666C19.5967 16.9997 19.0871 17 18.0677 17H5.93191C4.91254 17 4.40284 16.9998 4.12429 16.7666C3.9391 16.6115 3.81634 16.3948 3.77859 16.1562C3.72197 15.7974 3.98353 15.3596 4.50808 14.4854L5.08621 13.5225C5.10113 13.4976 5.10914 13.485 5.11648 13.4727C5.69492 12.5007 6.06078 11.4167 6.18972 10.293C6.19135 10.2788 6.1924 10.264 6.19558 10.2354L6.44754 7.96973C6.76188 5.14063 9.15376 3 12.0003 3Z" fill="curentColor"/>
<path d="M9 17C9 17.394 9.0776 17.7841 9.22836 18.1481C9.37913 18.512 9.6001 18.8427 9.87868 19.1213C10.1573 19.3999 10.488 19.6209 10.8519 19.7716C11.2159 19.9224 11.606 20 12 20C12.394 20 12.7841 19.9224 13.1481 19.7716C13.512 19.6209 13.8427 19.3999 14.1213 19.1213C14.3999 18.8427 14.6209 18.512 14.7716 18.1481C14.9224 17.7841 15 17.394 15 17L12 17H9Z" fill="currentColor"/>
</svg>
